<?xml version="1.0" encoding="UTF-8" standalone="no"?>
<!-- Created with Inkscape (http://www.inkscape.org/) -->

<svg
   width="1920"
   height="1080"
   viewBox="0 0 1920 1080"
   version="1.1"
   id="svg1"
   inkscape:version="1.3 (0e150ed6c4, 2023-07-21)"
   sodipodi:docname="logo.svg"
   xmlns:inkscape="http://www.inkscape.org/namespaces/inkscape"
   xmlns:sodipodi="http://sodipodi.sourceforge.net/DTD/sodipodi-0.dtd"
   xmlns:xlink="http://www.w3.org/1999/xlink"
   xmlns="http://www.w3.org/2000/svg"
   xmlns:svg="http://www.w3.org/2000/svg">
  <sodipodi:namedview
     id="namedview1"
     pagecolor="#505050"
     bordercolor="#eeeeee"
     borderopacity="1"
     inkscape:showpageshadow="0"
     inkscape:pageopacity="0"
     inkscape:pagecheckerboard="0"
     inkscape:deskcolor="#505050"
     inkscape:document-units="px"
     inkscape:zoom="0.73072917"
     inkscape:cx="960"
     inkscape:cy="539.8717"
     inkscape:window-width="1920"
     inkscape:window-height="1017"
     inkscape:window-x="-8"
     inkscape:window-y="-8"
     inkscape:window-maximized="1"
     inkscape:current-layer="layer1" />
  <defs
     id="defs1">
    <linearGradient
       inkscape:collect="always"
       xlink:href="#linearGradient5"
       id="linearGradient6"
       x1="785.9668"
       y1="58.97168"
       x2="510.44339"
       y2="1115.6282"
       gradientUnits="userSpaceOnUse"
       gradientTransform="matrix(1.2316941,0,0,1.3657045,242.93648,1.3079115)" />
    <linearGradient
       id="linearGradient5"
       inkscape:collect="always">
      <stop
         style="stop-color:#000000;stop-opacity:1;"
         offset="0.36122075"
         id="stop5" />
      <stop
         style="stop-color:#6f6f6f;stop-opacity:0.5529412;"
         offset="0.69557792"
         id="stop7" />
      <stop
         style="stop-color:#ffffff;stop-opacity:0;"
         offset="1"
         id="stop6" />
    </linearGradient>
  </defs>
  <g
     inkscape:label="Layer 1"
     inkscape:groupmode="layer"
     id="layer1">
    <rect
       style="display:inline;fill:url(#linearGradient6);fill-opacity:1;stroke-width:1.29697"
       id="rect2"
       width="1080"
       height="1080"
       x="372.72702"
       y="1.3079116"
       ry="540"
       rx="540" />
    <path
       d="M 403.21688,634.17065 V 453.71828 h 50.57169 c 19.52973,0 62.06091,-45.37136 72.13415,-38.62477 10.07323,6.66536 -9.77608,65.20492 -4.08847,78.12922 5.75612,12.84299 8.63417,28.32775 8.63417,46.45426 0,17.15111 -2.63821,32.87975 -7.91468,47.18588 -5.20791,14.3061 -13.15689,25.76728 -23.84681,34.38348 -10.68997,8.61621 -25.55997,12.9243 -44.61002,12.9243 z m 21.58548,-19.1426 h 27.64996 c 14.39033,0 25.14882,-2.68239 32.27544,-8.0472 7.19516,-5.44608 12.81424,-14.02163 16.85723,-25.72665 4.043,-11.70501 6.0645,-24.75123 6.0645,-39.13866 0,-12.68042 -1.7474,-24.22288 -5.24219,-34.62735 -3.4948,-10.48574 -9.14814,-18.85806 -16.96003,-25.11701 -7.81189,-6.34022 -22.09942,-9.51034 -42.86259,-9.51034 h -17.78232 z m 135.98852,19.1426 10.21623,-221.5807 37.63952,33.51198 -26.27026,188.06872 z m 60.74772,0 V 453.71828 L 666.06428,485.707 719.29,593.08114 V 453.71828 l 38.93427,-48.7447 -20.43244,229.19707 H 716.72031 L 640.04045,494.80777 v 139.36288 z m 217.70503,4.51129 c -14.39033,0 -26.93048,-3.82039 -37.62044,-11.46117 -10.6214,-7.64077 -18.87873,-18.77679 -24.77189,-33.40805 -5.82467,-14.71256 -8.73699,-31.3353 -8.73699,-49.86826 0,-17.88264 2.77526,-34.13962 8.32584,-48.77091 5.61906,-14.71256 13.87637,-26.05181 24.7719,-34.01772 10.89553,-7.9659 23.57273,-51.55394 38.03158,-51.55394 14.4588,0 27.13604,43.58804 38.03159,51.55394 10.89546,7.96591 19.11855,19.30516 24.66906,34.01772 5.61913,14.63129 8.42863,30.88827 8.42863,48.77091 0,17.80139 -2.77524,34.0177 -8.32585,48.64896 -5.482,14.55 -13.63655,25.88925 -24.46359,34.01773 -10.7584,8.0472 -23.53831,12.07079 -38.33984,12.07079 z m 0,-19.14256 c 15.3497,0 27.20456,-6.78729 35.56469,-20.36187 8.42855,-13.57458 12.64286,-32.06687 12.64286,-55.47689 0,-23.32876 -4.24857,-41.69913 -12.74574,-55.11114 -8.42855,-13.49329 -11.49246,-35.47265 -26.70502,-35.47265 -15.21266,0 -35.8243,21.97936 -44.32146,35.47265 -8.4286,13.41201 -12.64293,31.78238 -12.64293,55.11114 0,23.41002 4.18006,41.90231 12.54014,55.47689 8.4286,13.57458 20.31778,20.36187 35.66746,20.36187 z m 137.53038,14.63127 -1.45954,-185.68215 -52.50425,24.37234 7.29731,-61.79418 128.05347,44.1749 -5.8378,17.61928 h -53.96362 v 161.30981 z m 96.92899,0 V 453.71828 l 38.7518,-42.6516 c 11.7409,-12.92244 28.8491,21.30794 73.3052,42.59803 6.5097,9.02257 -20.884,33.09586 -20.884,44.80087 0,6.82793 -1.1649,13.57458 -3.4947,20.23994 -2.2615,6.66535 -5.5163,12.59915 -9.765,17.80138 -4.2485,5.20222 -10.0388,9.59161 -17.371,13.16812 l 50.7773,84.49563 h -26.5193 l -43.2738,-76.32646 h -20.1466 v 76.32646 z m 21.3799,-95.46907 h 6.9896 c 15.9665,0 26.7249,-3.94229 32.2754,-11.82692 5.6191,-7.88463 8.4286,-16.54149 8.4286,-25.97054 0,-5.60864 -1.062,-10.48574 -3.1863,-14.63126 -2.0557,-4.22681 34.0947,-18.18179 29.6406,-20.53902 -4.3857,-2.35727 -44.0285,-29.52401 -50.3637,-21.81516 l -23.7842,28.94216 z m 111.7307,95.46907 -7.2974,-218.53417 90.8435,35.03525 1.4595,22.18911 h -63.4203 v 57.91548 h 53.1414 v 18.8987 h -53.1414 v 65.35303 h 67.8402 v 19.1426 z m 96.1067,0 50.469,-90.59197 -48.0021,-89.8604 13.8159,-42.65162 48.268,110.68703 38.4429,-68.03541 h 20.3519 l -48.6187,87.17799 49.8522,93.27438 h -25.4915 l -38.6482,-71.57132 -39.9846,71.57132 z"
       id="path7"
       style="font-size:96px;line-height:2.9;font-family:'Lucida Sans';-inkscape-font-specification:'Lucida Sans';text-align:center;text-anchor:middle;white-space:pre;shape-padding:1.9335;fill:#ffffff;fill-opacity:0.655602;stroke-width:2.38824"
       aria-label="DINOTREX"
       sodipodi:nodetypes="ccsccscssccscssccsccccccccccccccccccsccscssscsccsscscscscscccccccccccscscsccccccccscsccscccccccccccccccccccccccccccc" />
  </g>
</svg>
